#!OML:ASF E:\Steps\Project 1\Capture day 1\Session 2\Subject.ASF
:FULLY-SPECIFIED
:DEGREES
816
root 8.6195 25.1662 -18.2032 -153.039 2.92436 179.984
lowerback -23.2273 -2.33004 -5.33312
upperback 1.19451 -1.48773 0.246101
thorax 14.6634 -1.04087 2.83239
lowerneck -1.68973 -2.62413 -3.1342
upperneck 19.9375 -2.96718 5.50577
head 6.44558 -0.734061 2.16845
rclavicle -5.36719e-015 -2.78299e-015
rhumerus -43.8578 -11.1966 -77.3325
rradius 43.5942
rwrist -7.69014
rhand -5.98201 -50.5337
rfingers 7.12502
rthumb 19.8496 280.46
lclavicle -5.36719e-015 -2.78299e-015
lhumerus -28.9662 -6.31675 80.533
lradius 32.815
lwrist -2.61515
lhand -21.0452 -10.0508
lfingers 7.12502
lthumb 5.33067 19.8621
rfemur -43.4122 12.0387 14.2069
rtibia 30.9436
rfoot -382.563 -8.84913
rtoes -46.1365
lfemur -34.6262 -8.14776 -20.4114
ltibia 18.1031
lfoot 352.81 5.42678
ltoes -31.4471
817
root 8.62038 25.1634 -18.248 -153.09 2.54425 180.015
lowerback -23.4363 -2.35977 -5.12438
upperback 1.21266 -1.57077 0.245732
thorax 14.8064 -1.0641 2.67936
lowerneck -1.64254 -2.62957 -2.96533
upperneck 19.9224 -2.98245 5.51622
head 6.43066 -0.725857 2.14284
rclavicle 1.27222e-014 -5.96354e-015
rhumerus -44.4144 -11.4024 -77.4095
rradius 44.7312
rwrist -7.61924
rhand -5.64119 -51.36
rfingers 7.12502
rthumb 20.1773 279.668
lclavicle 1.27222e-014 -5.96354e-015
lhumerus -29.0966 -6.42133 80.4905
lradius 32.8132
lwrist -2.52658
lhand -20.9519 -9.92391
lfingers 7.12502
lthumb 5.42074 19.9868
rfemur -42.6061 12.1857 14.2756
rtibia 29.5707
rfoot -382.192 -8.7718
rtoes -45.6892
lfemur -34.3821 -8.08719 -20.4191
ltibia 18.0559
lfoot 352.74 5.00328
ltoes -31.5289
818
root 8.6246 25.1618 -18.2869 -153.166 2.34737 179.931
lowerback -23.4801 -2.36838 -5.12547
upperback 1.12434 -1.56832 0.217709
thorax 14.725 -1.05443 2.64986
lowerneck -1.63839 -2.68824 -2.95536
upperneck 20.1407 -3.04121 5.53028
head 6.50271 -0.736727 2.14581
rclavicle -9.93923e-016 1.74931e-014
rhumerus -44.4723 -11.4569 -77.4842
rradius 44.4864
rwrist -7.65829
rhand -5.79254 -51.6739
rfingers 7.12502
rthumb 20.0318 279.339
lclavicle -9.93923e-016 1.74931e-014
lhumerus -29.4365 -6.17582 80.4247
lradius 32.7699
lwrist -2.83668
lhand -20.9001 -10.3424
lfingers 7.12502
lthumb 5.47085 19.567
rfemur -41.9162 12.3785 14.1921
rtibia 28.4069
rfoot -381.403 -8.72233
rtoes -45.9594
lfemur -34.1123 -7.97804 -20.5607
ltibia 17.9555
lfoot 352.709 4.69739
ltoes -32.3092
819
root 8.63045 25.1601 -18.3321 -153.268 2.19158 179.766
lowerback -23.4726 -2.38505 -5.25481
upperback 0.966147 -1.54078 0.197029
thorax 14.5335 -1.03793 2.71364
lowerneck -1.522 -2.77903 -3.05588
upperneck 20.4181 -3.1313 5.60432
head 6.57843 -0.760175 2.18715
rclavicle 7.95139e-016 -2.98177e-014
rhumerus -44.5816 -11.4986 -77.424
rradius 43.9987
rwrist -7.8271
rhand -6.27097 -51.0176
rfingers 7.12502
rthumb 19.5719 279.948
lclavicle 7.95139e-016 -2.98177e-014
lhumerus -29.9287 -5.70781 80.4045
lradius 32.7238
lwrist -3.44786
lhand -20.8756 -10.6599
lfingers 7.12502
lthumb 5.49442 19.2489
rfemur -41.1911 12.5445 14.0304
rtibia 27.3391
rfoot -380.4 -8.55376
rtoes -45.6138
lfemur -33.7187 -8.04269 -20.7413
ltibia 17.7147
lfoot 352.667 4.51111
ltoes -32.2023
820
root 8.63119 25.1555 -18.381 -153.311 1.85794 179.784
lowerback -23.8708 -2.406 -5.16636
upperback 1.07355 -1.58615 0.298853
thorax 14.8958 -1.06822 2.75646
lowerneck -1.57044 -2.78263 -3.12641
upperneck 20.2486 -3.16565 5.71279
head 6.53656 -0.783451 2.22888
rclavicle -3.67752e-015 4.77083e-015
rhumerus -44.212 -11.6214 -77.3076
rradius 43.4782
rwrist -7.94452
rhand -6.26234 -50.2503
rfingers 7.12502
rthumb 19.5801 280.716
lclavicle -3.67752e-015 4.77083e-015
lhumerus -29.8569 -5.31282 80.4974
lradius 32.5995
lwrist -3.80682
lhand -20.7301 -10.3817
lfingers 7.12502
lthumb 5.63493 19.5234
rfemur -40.4007 12.4788 14.2147
rtibia 26.3035
rfoot -379.163 -7.94531
rtoes -43.6403
lfemur -33.3681 -8.24863 -20.6612
ltibia 17.491
lfoot 352.554 4.28153
ltoes -30.7656
